<?xml version="1.0" encoding="UTF-8"?>
<svg id="Layer_1" data-name="Layer 1" xmlns="http://www.w3.org/2000/svg" viewBox="0 0 89.27 89.27">
  <defs>
    <style>
      .cls-1 {
        fill: #f8991d;
      }

      .cls-2 {
        fill: #fff;
      }

      .cls-3 {
        fill: #343f49;
      }
    </style>
  </defs>
  <circle class="cls-3" cx="44.63" cy="44.63" r="44.63"/>
  <g>
    <path class="cls-2" d="m65.42,38.99c1.02-2.93,2.04-5.86,3.06-8.79.65-1.86,1.29-3.71,1.95-5.56.26-.74.46-.86,1.24-.86.43,0,.86,0,1.28,0,.26,0,.52,0,.78,0,.37.02.51.19.46.56-.03.19-.09.38-.16.56-2.78,7.08-5.56,14.15-8.35,21.22-.39.99-.9,1.92-1.6,2.73-.9,1.04-2.06,1.53-3.41,1.62-.88.05-1.76.01-2.62-.23-.55-.16-.75-.4-.77-.97-.01-.39-.02-.78,0-1.17.02-.48.21-.67.69-.61.62.08,1.23.14,1.86.1,1.01-.07,1.8-.51,2.34-1.39.65-1.07.97-2.28,1.43-3.43.07-.17-.02-.3-.08-.44-2.32-5.73-4.64-11.45-6.96-17.18-.11-.26-.21-.53-.27-.81-.07-.35.09-.56.45-.56.84-.01,1.69,0,2.53,0,.51,0,.74.35.9.78.41,1.14.83,2.28,1.24,3.43,1.28,3.55,2.56,7.1,3.85,10.65.04.12.06.26.18.35Z"/>
    <g>
      <path class="cls-1" d="m41.06,65.97c-7.8-.61-14.95-3.07-21.45-7.43-1.69-1.14-3.28-2.4-4.81-3.75-.08-.07-.15-.14-.21-.23-.13-.2-.18-.41-.03-.62.16-.23.39-.26.62-.19.19.06.38.17.55.27,4.93,2.81,10.17,4.82,15.68,6.12,3.63.85,7.3,1.36,11.03,1.54,8.78.41,17.2-1.15,25.31-4.47.23-.09.45-.2.7-.21.41-.01.79.19.93.51.15.34.07.73-.28,1.01-.51.4-1.04.77-1.59,1.12-3.9,2.51-8.15,4.15-12.65,5.22-2.63.62-5.29,1.02-7.99,1.17-.07,0-3.31.06-3.54.03-.13,0-1.98-.07-2.3-.09Z"/>
      <path class="cls-1" d="m68.61,54.88c-1.48,0-2.95.19-4.42.34-.25.02-.56.13-.67-.21-.1-.31.14-.51.36-.67.99-.7,2.09-1.14,3.26-1.41,2.12-.5,4.26-.57,6.39-.07.04,0,.08.01.11.02.91.27,1.13.54,1.14,1.49.01,1.04-.18,2.06-.46,3.06-.55,1.96-1.39,3.76-2.79,5.27-.25.27-.52.51-.79.74-.19.16-.45.28-.68.11-.23-.17-.11-.43-.03-.64.59-1.5,1.19-3.01,1.6-4.58.18-.7.35-1.41.29-2.15-.05-.65-.24-.88-.87-1.08-.8-.26-1.64-.24-2.47-.24Z"/>
    </g>
    <path class="cls-2" d="m35.3,28.16c-.85-2.45-2.51-4.16-5.11-4.75-2.1-.48-4.12-.13-6.02.87-.71.38-1.36.84-2.02,1.39-.08-.45-.13-.84-.21-1.23-.09-.46-.33-.67-.81-.68-.52,0-1.04,0-1.56,0-.61,0-.83.21-.83.82,0,8.21,0,16.41,0,24.62,0,.62.22.83.85.84.61,0,1.22,0,1.83,0,.8,0,.97-.18.97-.99v-8.32c.07.02.09.02.11.04.08.06.16.13.24.19,2.02,1.64,4.34,2.19,6.85,1.73,2.83-.52,4.64-2.33,5.61-4.95,1.18-3.17,1.19-6.4.08-9.59Zm-3.5,8.61c-.7,2.14-2.27,3.14-4.57,3.13-1.75-.01-3.28-.65-4.68-1.65-.16-.12-.15-.25-.15-.4v-4.82c0-1.62,0-3.24,0-4.86,0-.24.07-.37.27-.5,1.47-.99,3.06-1.55,4.85-1.5,2.14.06,3.58,1.01,4.26,3.04.84,2.5.85,5.06.03,7.56Z"/>
    <path class="cls-2" d="m53.78,27.96c-.24-2.31-1.62-3.89-3.88-4.43-1.66-.4-3.34-.37-5.02-.19-1.42.15-2.81.44-4.14.98-.69.28-.81.46-.82,1.19,0,.26,0,.52,0,.78,0,.8.21.94.97.72,2.12-.64,4.28-1.01,6.51-.83,1.93.15,2.83,1.05,2.96,2.97.06.84.03,1.69.03,2.53,0,.5,0,.5-.49.39-2.01-.44-4.03-.71-6.09-.35-1.47.26-2.77.85-3.78,1.98-1.23,1.36-1.53,2.99-1.28,4.75.3,2.09,1.45,3.52,3.47,4.16,2.21.69,4.33.29,6.35-.74.69-.35,1.32-.8,1.96-1.32.07.46.13.83.19,1.2.09.52.32.7.85.71.44,0,.88,0,1.32,0,.79,0,.95-.16.95-.96,0-4.01,0-8.01,0-12.02,0-.51-.02-1.01-.07-1.51Zm-3.72,10.56c-1.35.93-2.82,1.52-4.46,1.64-.4.03-.81,0-1.2-.08-1.24-.26-1.99-1.15-2.07-2.43-.13-2.06.89-3.28,2.96-3.52,1.64-.2,3.26.02,4.86.35.2.04.25.12.24.31-.01.54,0,1.09,0,1.63,0,.49-.02.99,0,1.48.02.3-.1.47-.34.63Z"/>
  </g>
</svg>