<svg id="Layer_1" data-name="Layer 1" xmlns="http://www.w3.org/2000/svg" xmlns:xlink="http://www.w3.org/1999/xlink" viewBox="0 0 30 30"><defs><style>.cls-1{fill:none;}.cls-2{clip-path:url(#clip-path);}.cls-3{isolation:isolate;}.cls-4{fill:#00bdf2;}.cls-5{fill:#213368;}</style><clipPath id="clip-path"><rect class="cls-1" width="30" height="30"/></clipPath></defs><g class="cls-2"><g class="cls-3"><g class="cls-2"><path class="cls-4" d="M26.83231,13.45814a1.5898,1.5898,0,0,0-1.505-1.067h-.0123a1.60717,1.60717,0,0,0-1.14721.48726,1.58274,1.58274,0,0,0-1.14722-.48726H23.0083a1.582,1.582,0,0,0-1.03619.38857v-.12335a.23084.23084,0,0,0-.23438-.21588h-1.067a.23428.23428,0,0,0-.23438.23438v5.79153a.23428.23428,0,0,0,.23438.23438h1.067a.2384.2384,0,0,0,.23438-.20354V14.297a.39152.39152,0,0,1,.37-.35773h.19123a.396.396,0,0,1,.22821.08635.38645.38645,0,0,1,.14184.30839l.00617,4.1324a.23428.23428,0,0,0,.23437.23438h1.067a.23611.23611,0,0,0,.23437-.222v-4.1509a.39546.39546,0,0,1,.37006-.4009h.19122a.39323.39323,0,0,1,.37006.4009l.00616,4.12624a.23427.23427,0,0,0,.23438.23437h1.067a.23425.23425,0,0,0,.23437-.23437V14.02557a1.56573,1.56573,0,0,0-.08633-.56743"/><path class="cls-4" d="M19.61589,12.45271h-.6106v-.98684a.21853.21853,0,0,0-.21588-.21587.105.105,0,0,0-.04318.00617c-.67844.185-.54275,1.12253-1.77631,1.20271h-.11718a.12023.12023,0,0,0-.04935.00617.23731.23731,0,0,0-.185.22821v1.067a.23427.23427,0,0,0,.23438.23437h.64145v4.521a.23427.23427,0,0,0,.23437.23438h1.06085a.23428.23428,0,0,0,.23438-.23438v-4.521h.59827a.23427.23427,0,0,0,.23437-.23437v-1.067a.24085.24085,0,0,0-.24054-.24055"/><path class="cls-5" d="M15.78561,12.45256h-1.067a.23427.23427,0,0,0-.23438.23437v2.20189a.24744.24744,0,0,1-.24672.24671h-.44407a.254.254,0,0,1-.25287-.25288l-.00618-2.20189A.23427.23427,0,0,0,13.3,12.44639H12.233a.23426.23426,0,0,0-.23438.23437v2.41777a1.51256,1.51256,0,0,0,1.57277,1.57278s.6908,0,.70931.00616a.2485.2485,0,0,1,.00616.49343.02264.02264,0,0,0-.01849.00616l-1.56046.00617a.23427.23427,0,0,0-.23437.23437v1.067a.23427.23427,0,0,0,.23437.23437h1.74548a1.51255,1.51255,0,0,0,1.57279-1.57278V12.6931a.24926.24926,0,0,0-.24056-.24054"/><path class="cls-5" d="M5.4671,14.40782v.66a.24743.24743,0,0,1-.24671.24671H4.54194V14.00074h.67845a.24743.24743,0,0,1,.24671.24672Zm.09252-1.95518H3.22821A.22767.22767,0,0,0,3,12.68084v5.79153a.227.227,0,0,0,.21587.23438H4.3014a.23427.23427,0,0,0,.23437-.23438l.00617-1.616H5.55962A1.38585,1.38585,0,0,0,7.00905,15.407V13.90823a1.38742,1.38742,0,0,0-1.44943-1.45559"/><path class="cls-5" d="M9.88918,16.912v.16653a.07833.07833,0,0,1-.00616.037.08762.08762,0,0,1-.01234.037.24957.24957,0,0,1-.23437.16037H9.19223a.24666.24666,0,0,1-.25288-.23438v-.91283a.24272.24272,0,0,1,.25288-.23437h.44408a.24664.24664,0,0,1,.25287.23437Zm-.16652-4.45312H8.24239a.22793.22793,0,0,0-.23437.222v.99918a.24271.24271,0,0,0,.25287.23437H9.66714a.24414.24414,0,0,1,.20971.22821v.13569a.22589.22589,0,0,1-.20354.21587H8.97019a1.4831,1.4831,0,0,0-1.59128,1.48026v1.23972a1.40011,1.40011,0,0,0,1.4926,1.4741H10.802a.61188.61188,0,0,0,.6291-.58594V14.06251c0-.98068-.50575-1.60362-1.70846-1.60362"/></g></g></g></svg>